<svg width="24" height="25" viewBox="0 0 24 25" fill="none" xmlns="http://www.w3.org/2000/svg">
<path d="M10 12.5H8V14.5H6V12.5H4V10.5H6V8.5H8V10.5H10V12.5ZM17 13C17 12.17 16.33 11.5 15.5 11.5C14.67 11.5 14 12.17 14 13C14 13.83 14.67 14.5 15.5 14.5C16.33 14.5 17 13.83 17 13ZM20 10C20 9.17 19.33 8.5 18.5 8.5C17.67 8.5 17 9.17 17 10C17 10.83 17.67 11.5 18.5 11.5C19.33 11.5 20 10.83 20 10ZM16.97 5.65L12.47 8.18L11.98 8.45L11.49 8.18L6.99 5.65L3 7.89V14.32L11.98 19.36L20.96 14.32V7.89L16.97 5.65ZM16.97 4.5L21.96 7.3V14.9L11.98 20.5L2 14.9V7.3L6.99 4.5L11.98 7.3L16.97 4.5Z" fill="#030303"/>
</svg>
