<svg width="24" height="25" viewBox="0 0 24 25" fill="none" xmlns="http://www.w3.org/2000/svg">
<path d="M14.97 17.45L10 14.37V7.5H12V13.26L16.03 15.75L14.97 17.45ZM22 12.5C22 18.01 17.51 22.5 12 22.5C6.49002 22.5 2.00002 18.01 2.00002 12.5H3.00002C3.00002 17.46 7.04002 21.5 12 21.5C16.96 21.5 21 17.46 21 12.5C21 7.54 16.96 3.5 12 3.5C8.81002 3.5 5.92002 5.14 4.28002 7.88C4.17002 8.06 4.06002 8.25 3.97002 8.44L3.94002 8.5H8.00002V9.5H1.96002V3.5H2.96002V8.24C3.00002 8.15 3.03002 8.07 3.07002 7.99C3.18002 7.77 3.30002 7.57 3.42002 7.36C5.22002 4.36 8.51002 2.5 12 2.5C17.51 2.5 22 6.99 22 12.5Z" fill="#030303"/>
</svg>
