<svg width="24" height="25" viewBox="0 0 24 25" fill="none" xmlns="http://www.w3.org/2000/svg">
<path d="M14 12.5C14 13.6 13.1 14.5 12 14.5C10.9 14.5 10 13.6 10 12.5C10 11.4 10.9 10.5 12 10.5C13.1 10.5 14 11.4 14 12.5ZM8.48 8.94998L7.77 8.24998C6.68 9.32998 6 10.84 6 12.5C6 14.16 6.68 15.67 7.77 16.75L8.48 16.04C7.57 15.14 7 13.89 7 12.5C7 11.11 7.57 9.85998 8.48 8.94998ZM16.23 8.24998L15.52 8.95998C16.43 9.85998 17 11.11 17 12.5C17 13.89 16.43 15.14 15.52 16.05L16.23 16.76C17.32 15.67 18 14.16 18 12.5C18 10.84 17.32 9.32998 16.23 8.24998ZM5.65 6.12998L4.95 5.41998C3.13 7.22998 2 9.73998 2 12.5C2 15.26 3.13 17.77 4.95 19.58L5.66 18.87C4.02 17.24 3 14.99 3 12.5C3 10.01 4.02 7.75998 5.65 6.12998ZM19.05 5.41998L18.34 6.12998C19.98 7.75998 21 10.01 21 12.5C21 14.99 19.98 17.24 18.35 18.87L19.06 19.58C20.87 17.77 22 15.26 22 12.5C22 9.73998 20.87 7.22998 19.05 5.41998Z" fill="#030303"/>
</svg>
