<svg width="24" height="25" viewBox="0 0 24 25" fill="none" xmlns="http://www.w3.org/2000/svg">
<path d="M12 2.5C6.48 2.5 2 6.98 2 12.5C2 18.02 6.48 22.5 12 22.5C17.52 22.5 22 18.02 22 12.5C22 6.98 17.52 2.5 12 2.5ZM12 3.5C16.96 3.5 21 7.54 21 12.5C21 13.92 20.66 15.26 20.07 16.46C18.54 14.74 16.09 13.57 12.69 13.43C13.6158 13.2687 14.455 12.7863 15.0604 12.0675C15.6657 11.3488 15.9984 10.4397 16 9.5C16 7.29 14.21 5.5 12 5.5C9.79 5.5 8 7.29 8 9.5C8 11.47 9.43 13.1 11.31 13.43C7.91 13.57 5.46 14.74 3.93 16.46C3.34 15.26 3 13.92 3 12.5C3 7.54 7.04 3.5 12 3.5ZM9 9.5C9 7.85 10.35 6.5 12 6.5C13.65 6.5 15 7.85 15 9.5C15 11.15 13.65 12.5 12 12.5C10.35 12.5 9 11.15 9 9.5ZM12 21.5C8.84 21.5 6.06 19.86 4.45 17.38C6.01 15.43 8.61 14.4 12 14.4C15.39 14.4 17.99 15.43 19.55 17.38C17.94 19.86 15.16 21.5 12 21.5Z" fill="#065FD4"/>
</svg>
