<svg width="24" height="25" viewBox="0 0 24 25" fill="none" xmlns="http://www.w3.org/2000/svg">
<path d="M6 12.5C6 9.19 8.69 6.5 12 6.5C15.31 6.5 18 9.19 18 12.5C18 14.16 17.33 15.66 16.23 16.75L15.52 16.04C16.44 15.13 17 13.88 17 12.5C17 9.74 14.76 7.5 12 7.5C9.24 7.5 7 9.74 7 12.5C7 13.88 7.56 15.13 8.47 16.04L7.76 16.75C6.67 15.66 6 14.16 6 12.5ZM14 12.5C14 11.4 13.1 10.5 12 10.5C10.9 10.5 10 11.4 10 12.5C10 13.24 10.4 13.88 11 14.22V22.5H13V14.22C13.6 13.88 14 13.24 14 12.5ZM4.94 19.58L5.65 18.87C4.01 17.24 3 14.99 3 12.5C3 7.54 7.04 3.5 12 3.5C16.96 3.5 21 7.54 21 12.5C21 14.99 19.99 17.24 18.35 18.87L19.06 19.58C20.88 17.77 22 15.27 22 12.5C22 6.98 17.52 2.5 12 2.5C6.48 2.5 2 6.98 2 12.5C2 15.27 3.12 17.77 4.94 19.58Z" fill="#030303"/>
</svg>
