<svg width="24" height="25" viewBox="0 0 24 25" fill="none" xmlns="http://www.w3.org/2000/svg">
<path d="M7 8.5C7 11.26 9.24 13.5 12 13.5C14.76 13.5 17 11.26 17 8.5H16C16 10.71 14.21 12.5 12 12.5C9.79 12.5 8 10.71 8 8.5H7ZM16.9 6.5C16.44 4.22 14.42 2.5 12 2.5C9.58 2.5 7.56 4.22 7.1 6.5H4V20.5C4 21.6 4.9 22.5 6 22.5H18C19.1 22.5 20 21.6 20 20.5V6.5H16.9ZM12 3.5C13.86 3.5 15.43 4.77 15.87 6.5H8.13C8.57 4.77 10.14 3.5 12 3.5ZM19 20.5C19 21.05 18.55 21.5 18 21.5H6C5.45 21.5 5 21.05 5 20.5V7.5H19V20.5Z" fill="#030303"/>
</svg>
