<svg width="24" height="25" viewBox="0 0 24 25" fill="none" xmlns="http://www.w3.org/2000/svg">
<path d="M10 15.15V9.85001L15 12.5L10 15.15ZM17.77 10.82L16.57 10.32L18 9.56001C19.84 8.60001 20.53 6.33001 19.56 4.50001C18.59 2.67001 16.32 1.97001 14.49 2.94001L6.00001 7.44001C4.71001 8.12001 3.93001 9.48001 4.00001 10.93C4.07001 12.35 4.93001 13.6 6.22001 14.18C6.25001 14.19 7.42001 14.68 7.42001 14.68L6.00001 15.43C4.17001 16.4 3.47001 18.67 4.44001 20.5C5.41001 22.33 7.68001 23.03 9.51001 22.06L18.01 17.56C19.3 16.88 20.07 15.52 20 14.07C19.93 12.65 19.06 11.39 17.77 10.82ZM17.54 16.68L9.04001 21.18C7.70001 21.89 6.03001 21.38 5.32001 20.04C4.61001 18.7 5.12001 17.03 6.46001 16.32L8.50001 15.24V14.03L7.81001 13.75L6.70001 13.29C5.71001 12.88 5.05001 11.94 5.00001 10.88C4.95001 9.82001 5.52001 8.82001 6.46001 8.32001L14.96 3.82001C16.3 3.11001 17.97 3.62001 18.68 4.96001C19.39 6.30001 18.88 7.97001 17.54 8.68001L15.5 9.76001V10.97L17.3 11.71C18.29 12.12 18.95 13.06 19 14.12C19.05 15.18 18.48 16.18 17.54 16.68Z" fill="#030303"/>
</svg>
