<svg width="24" height="25" viewBox="0 0 24 25" fill="none" xmlns="http://www.w3.org/2000/svg">
<path d="M19 4.37V14.14C19 18.2 15.86 21.5 12 21.5C8.14 21.5 5 18.2 5 14.13V14C5 12.94 5.22 11.87 5.62 10.91C6.12 9.72 6.91 8.7 7.89 7.94C8.74 7.28 9.72 6.8 10.76 6.29C11.15 6.1 11.53 5.91 11.91 5.71C12.27 5.52 12.63 5.33 12.99 5.15V8.37L14.54 7.33L19 4.37ZM20 2.5L14 6.5V3.5C13.15 3.94 12.3 4.38 11.45 4.83C10.04 5.57 8.55 6.17 7.28 7.15C6.15 8.02 5.26 9.2 4.7 10.52C4.24 11.61 4 12.81 4 14V14.14C4 18.76 7.58 22.5 12 22.5C16.42 22.5 20 18.76 20 14.14V2.5ZM9.45 13.39L14 10.5V16.2C14 18.02 12.66 19.5 11 19.5C9.34 19.5 8 18.03 8 16.2C8 15.01 8.58 13.97 9.45 13.39Z" fill="#030303"/>
</svg>
