<svg width="24" height="25" viewBox="0 0 24 25" fill="none" xmlns="http://www.w3.org/2000/svg">
<path d="M22.54 8.10003C22.54 8.10003 22.34 6.60003 21.68 5.93003C20.85 5.06003 19.93 5.05003 19.5 5.00003C16.46 4.78003 11.9 4.80003 11.9 4.80003C11.9 4.80003 7.34 4.78003 4.3 5.00003C3.87 5.05003 2.95 5.06003 2.12 5.93003C1.47 6.60003 1.26 8.11003 1.26 8.11003C1.26 8.11003 1.04 9.90003 1 11.68V13.34C1.04 15.12 1.26 16.89 1.26 16.89C1.26 16.89 1.46 18.39 2.12 19.07C2.95 19.94 4.02 19.91 4.52 20.01C6.22 20.16 11.72 20.21 11.9 20.21C11.9 20.21 16.47 20.21 19.5 19.99C19.93 19.94 20.85 19.93 21.68 19.06C22.33 18.39 22.54 16.88 22.54 16.88C22.54 16.88 22.76 15.11 22.78 13.33V11.67C22.76 9.89003 22.54 8.12003 22.54 8.12003V8.10003Z" fill="#FF0000"/>
<path d="M9.67999 9.40002V15.58L15.52 12.48" fill="#FAFAFA"/>
<path d="M9.67999 9.38L14.81 12.86L15.54 12.48" fill="black" fill-opacity="0.12"/>
<path d="M22.54 8.10003C22.54 8.10003 22.34 6.60003 21.68 5.93003C20.85 5.06003 19.93 5.05003 19.5 5.00003C16.46 4.78003 11.9 4.80003 11.9 4.80003C11.9 4.80003 7.34 4.78003 4.3 5.00003C3.87 5.05003 2.95 5.06003 2.12 5.93003C1.47 6.60003 1.26 8.11003 1.26 8.11003C1.26 8.11003 1.04 9.90003 1 11.68V11.78C1.04 10.02 1.26 8.24003 1.26 8.24003C1.26 8.24003 1.46 6.74003 2.12 6.07003C2.95 5.19003 3.87 5.19003 4.3 5.14003C7.34 4.92003 11.9 4.94003 11.9 4.94003C11.9 4.94003 16.46 4.92003 19.5 5.14003C19.93 5.19003 20.85 5.19003 21.68 6.07003C22.33 6.73003 22.54 8.24003 22.54 8.24003C22.54 8.24003 22.76 10.02 22.77 11.79V11.69C22.77 9.89003 22.54 8.13003 22.54 8.13003V8.10003Z" fill="white" fill-opacity="0.2"/>
<path d="M22.54 16.9001C22.54 16.9001 22.34 18.4001 21.68 19.0701C20.85 19.9401 19.93 19.9501 19.5 20.0001C16.46 20.2201 11.9 20.2001 11.9 20.2001C11.9 20.2001 7.34 20.2201 4.3 20.0001C3.87 19.9501 2.95 19.9401 2.12 19.0701C1.47 18.4001 1.26 16.8901 1.26 16.8901C1.26 16.8901 1.04 15.0901 1 13.3201V13.2201C1.04 14.9801 1.26 16.7601 1.26 16.7601C1.26 16.7601 1.46 18.2601 2.12 18.9301C2.95 19.8101 3.87 19.8101 4.3 19.8601C7.34 20.0801 11.9 20.0601 11.9 20.0601C11.9 20.0601 16.46 20.0801 19.5 19.8601C19.93 19.8101 20.85 19.8101 21.68 18.9301C22.33 18.2701 22.54 16.7601 22.54 16.7601C22.54 16.7601 22.76 14.9801 22.77 13.2101V13.3101C22.77 15.1101 22.54 16.8701 22.54 16.8701V16.9001Z" fill="#3E2723" fill-opacity="0.2"/>
<path d="M9.67999 15.58V15.68L15.52 12.6V12.48" fill="white" fill-opacity="0.2"/>
<path d="M9.67999 9.40002V9.27002L15.52 12.37V12.47" fill="#3E2723" fill-opacity="0.2"/>
</svg>
