<svg width="17" height="17" viewBox="0 0 17 17" fill="none" xmlns="http://www.w3.org/2000/svg">
<path d="M9.57999 8.87998C9.57999 9.42998 9.12999 9.87998 8.57999 9.87998C8.02999 9.87998 7.57999 9.42998 7.57999 8.87998C7.57999 8.32998 8.02999 7.87998 8.57999 7.87998C9.12999 7.87998 9.57999 8.32998 9.57999 8.87998ZM10.69 11.01L11.4 11.72C12.13 10.99 12.58 9.98998 12.58 8.87998C12.58 7.76998 12.13 6.76998 11.4 6.03998L10.69 6.74998C11.24 7.29998 11.58 8.04998 11.58 8.87998C11.58 9.70998 11.24 10.46 10.69 11.01ZM5.75999 11.72L6.46999 11.01C5.91999 10.46 5.57999 9.70998 5.57999 8.87998C5.57999 8.04998 5.91999 7.29998 6.46999 6.74998L5.75999 6.03998C5.02999 6.76998 4.57999 7.76998 4.57999 8.87998C4.57999 9.98998 5.02999 10.99 5.75999 11.72ZM12.81 13.13L13.52 13.84C14.79 12.57 15.58 10.82 15.58 8.87998C15.58 6.93998 14.79 5.18998 13.52 3.91998L12.81 4.62998C13.9 5.71998 14.58 7.21998 14.58 8.87998C14.58 10.54 13.9 12.04 12.81 13.13ZM3.63999 13.84L4.34999 13.13C3.25999 12.04 2.57999 10.54 2.57999 8.87998C2.57999 7.21998 3.25999 5.71998 4.34999 4.62998L3.63999 3.91998C2.36999 5.18998 1.57999 6.93998 1.57999 8.87998C1.57999 10.82 2.36999 12.57 3.63999 13.84Z" fill="white"/>
</svg>
