<svg width="24" height="25" viewBox="0 0 24 25" fill="none" xmlns="http://www.w3.org/2000/svg">
<path d="M17.77 10.58L16.57 10.08L18 9.32002C18.8779 8.85589 19.5354 8.06204 19.828 7.1131C20.1205 6.16417 20.0242 5.13788 19.56 4.26002C19.0959 3.38215 18.302 2.72461 17.3531 2.43206C16.4042 2.1395 15.3779 2.23589 14.5 2.70002L6.00002 7.20002C5.37524 7.52645 4.85544 8.02281 4.50053 8.63187C4.14563 9.24092 3.97008 9.93788 3.99412 10.6424C4.01816 11.3469 4.24081 12.0303 4.63641 12.6137C5.03201 13.1972 5.58444 13.6569 6.23002 13.94L7.43002 14.43L6.00002 15.19C5.14934 15.6697 4.51933 16.4622 4.24397 17.3992C3.96861 18.3362 4.06963 19.3436 4.52555 20.2072C4.98147 21.0709 5.75631 21.7226 6.68529 22.0238C7.61427 22.3249 8.6241 22.2519 9.50002 21.82L18 17.32C18.6248 16.9936 19.1446 16.4972 19.4995 15.8882C19.8544 15.2791 20.03 14.5821 20.0059 13.8776C19.9819 13.1731 19.7592 12.4898 19.3636 11.9063C18.968 11.3229 18.4156 10.8631 17.77 10.58Z" fill="#FF0000"/>
<path d="M10 14.91L15 12.26L10 9.61005V14.91Z" fill="white"/>
</svg>
